# xmcd CD database file
#
# Track frame offsets:
#	150
#	16986
#	43349
#	68790
#	85134
#	107299
#	131785
#	137591
#	157562
#	183263
#	204930
#	223619
#	241719
#	263251
#
# Disc length: 3724 seconds
#
# Revision: 0
# Processed by: cddbd v1.5.1PL0 Copyright (c) Steve Scherf et al.
# Submitted via: CDex 1.51
#
DISCID=aa0e8a0e
DTITLE=US3 - US3
DYEAR=1900
DGENRE=Jazz
TTITLE0=US3 - Caugh up in a struggle
TTITLE1=US3 - Come on everybody(Get down)
TTITLE2=US3 - Don` a crime
TTITLE3=US3 - Grand groove
TTITLE4=US3 - Hymn for her
TTITLE5=US3 - I`m thinking about your body
TTITLE6=US3 - intro
TTITLE7=US3 - Nowadays
TTITLE8=US3 - Recognise and realise
TTITLE9=US3 - Sheep
TTITLE10=US3 - Snakes
TTITLE11=US3 - Soul and brother
TTITLE12=US3 - Time and space
TTITLE13=US3 - True to the game
EXTD=
EXTT0=
EXTT1=
EXTT2=
EXTT3=
EXTT4=
EXTT5=
EXTT6=
EXTT7=
EXTT8=
EXTT9=
EXTT10=
EXTT11=
EXTT12=
EXTT13=
PLAYORDER=
